<svg width="32" height="30" viewBox="0 0 32 30" fill="none" xmlns="http://www.w3.org/2000/svg">
<g clip-path="url(#clip0_8_2466)">
<path d="M12.275 29.9998C12.1032 29.9998 11.9321 29.9756 11.7668 29.9281C11.4135 29.8265 11.0605 29.711 10.7175 29.5848C9.97063 29.3109 9.48183 28.5858 9.50449 27.7852L9.5591 25.7998C9.55826 25.7858 9.55027 25.7733 9.53793 25.7668C8.93735 25.3997 8.36837 24.9826 7.83695 24.5197C7.82693 24.5101 7.81275 24.5062 7.79927 24.5094L5.94299 25.1748C5.19474 25.4434 4.35981 25.1996 3.87012 24.5694C3.64382 24.2784 3.4252 23.9761 3.22024 23.6702C2.77461 23.0061 2.80167 22.129 3.28737 21.4942L4.48817 19.9228C4.49562 19.9108 4.49628 19.8956 4.48996 19.883C4.21715 19.2301 3.99979 18.5551 3.84008 17.8653C3.83781 17.8516 3.82845 17.84 3.81551 17.835L1.92823 17.2749C1.16526 17.0492 0.631689 16.3562 0.604384 15.5555C0.598065 15.372 0.594727 15.1851 0.594727 15C0.594727 14.8148 0.598065 14.6279 0.604563 14.4443C0.631987 13.6436 1.1655 12.9507 1.92847 12.725L3.81569 12.1648C4.29501 12.0198 4.80032 12.2937 4.94423 12.7767C5.08815 13.2597 4.8163 13.7688 4.33692 13.9138C4.33388 13.9147 4.3309 13.9156 4.32786 13.9165L2.44069 14.4768C2.42633 14.4811 2.41637 14.4942 2.41595 14.5093C2.41023 14.6714 2.40737 14.8367 2.40737 15C2.40737 15.1633 2.41023 15.3286 2.41595 15.4906C2.41631 15.5058 2.42633 15.5189 2.44069 15.5233L4.32786 16.0835C4.96665 16.2749 5.45431 16.797 5.6052 17.451C5.74161 18.0402 5.92725 18.6166 6.16023 19.1742C6.41933 19.7927 6.32931 20.5036 5.92439 21.0368L4.72395 22.608C4.71489 22.6201 4.71453 22.6367 4.72312 22.6492C4.90364 22.9192 5.09661 23.1861 5.29627 23.4426C5.30545 23.4546 5.32119 23.4593 5.33538 23.4544L7.19124 22.7891C7.81954 22.5657 8.51849 22.6991 9.02219 23.1385C9.47665 23.5345 9.9633 23.8913 10.477 24.2052C11.0462 24.5524 11.3871 25.1803 11.3704 25.8504L11.3158 27.8359C11.3155 27.851 11.3248 27.8646 11.3388 27.8696C11.6411 27.9809 11.9522 28.0827 12.2635 28.1721C12.278 28.1765 12.2937 28.171 12.3025 28.1586L13.4173 26.5188C13.7949 25.9664 14.4375 25.6604 15.1008 25.7171C15.6994 25.7675 16.3012 25.7675 16.8998 25.7171C17.5629 25.661 18.2051 25.9669 18.5831 26.5188L19.698 28.1587C19.7069 28.171 19.7224 28.1764 19.7369 28.1721C20.0478 28.0828 20.3588 27.981 20.6615 27.8697C20.6756 27.8646 20.6849 27.851 20.6846 27.8359L20.63 25.8506C20.6134 25.1804 20.9543 24.5526 21.5236 24.2054C22.0373 23.8914 22.5239 23.5346 22.9784 23.1387C23.4821 22.6991 24.1811 22.5658 24.8094 22.7894L26.6648 23.4546C26.679 23.4596 26.6948 23.4549 26.7039 23.4428C26.904 23.1854 27.0966 22.9186 27.2771 22.649C27.2858 22.6365 27.2854 22.6199 27.2764 22.6077L26.0765 21.0368C25.6716 20.5037 25.5816 19.7928 25.8406 19.1743C26.0735 18.6167 26.2592 18.0403 26.3957 17.4512C26.5465 16.7971 27.0342 16.275 27.673 16.0836L29.5597 15.5237C29.5741 15.5194 29.584 15.5062 29.5844 15.4911C29.5905 15.3289 29.593 15.1637 29.593 15C29.593 14.8363 29.5902 14.6711 29.5844 14.5089C29.5841 14.4938 29.5741 14.4807 29.5597 14.4763L27.6731 13.9164C27.0342 13.7251 26.5464 13.2029 26.3957 12.5488C26.2593 11.9597 26.0735 11.3833 25.8406 10.8257C25.5816 10.2073 25.6716 9.49638 26.0765 8.96321L27.2764 7.39231C27.2855 7.38018 27.2858 7.36354 27.2772 7.35104C27.0967 7.08158 26.9041 6.81457 26.7041 6.55748C26.6951 6.54535 26.6793 6.54048 26.6651 6.54535L24.8093 7.21096C24.181 7.43436 23.482 7.30095 22.9784 6.86143C22.5239 6.46552 22.0372 6.10871 21.5236 5.79473C20.9545 5.4476 20.6135 4.81989 20.6301 4.14977L20.6847 2.16433C20.6851 2.14925 20.6758 2.13562 20.6617 2.13057C20.3585 2.01909 20.0474 1.91727 19.737 1.82807C19.7225 1.82362 19.7068 1.82909 19.6981 1.84158L18.5832 3.48133C18.2056 4.03365 17.563 4.3397 16.8997 4.28312C16.3012 4.23266 15.6995 4.23266 15.1009 4.28312C14.4376 4.33976 13.7951 4.03377 13.4175 3.48139L12.3025 1.84152C12.2938 1.82909 12.2781 1.82362 12.2636 1.82807C11.9525 1.91745 11.6414 2.01927 11.3389 2.13051C11.3248 2.13562 11.3156 2.14919 11.3159 2.16421L11.3705 4.14971C11.3872 4.81983 11.0463 5.44754 10.4772 5.79473C9.96347 6.10877 9.47676 6.46564 9.02219 6.86149C8.51861 7.30101 7.81966 7.43442 7.19136 7.21096L5.33544 6.54559C5.32125 6.54072 5.30557 6.54547 5.29639 6.55742C5.09697 6.81367 4.90417 7.08055 4.7233 7.3508C4.71471 7.3633 4.71501 7.37993 4.72407 7.39207L5.92433 8.96321C6.23481 9.3587 6.16834 9.93296 5.77583 10.2458C5.38331 10.5586 4.81338 10.4917 4.50289 10.0962C4.49794 10.0899 4.49312 10.0835 4.48835 10.0771L3.28785 8.50591C2.80197 7.87099 2.77491 6.9937 3.22072 6.32958C3.42568 6.02335 3.64429 5.72079 3.8706 5.43036C4.36023 4.80006 5.19522 4.55625 5.94347 4.82499L7.79933 5.49043C7.81287 5.49391 7.82717 5.48995 7.83707 5.48004C8.36855 5.01721 8.93753 4.60004 9.53811 4.23296C9.55039 4.22647 9.55838 4.21404 9.55927 4.2001L9.50467 2.21455C9.48201 1.41402 9.97087 0.688874 10.7177 0.414963C11.0611 0.288639 11.4141 0.173248 11.7669 0.0717931C12.5309 -0.148297 13.3489 0.148861 13.7977 0.809431L14.9127 2.44905C14.9218 2.45981 14.9356 2.46509 14.9495 2.46317C15.6489 2.40424 16.352 2.40424 17.0514 2.46317C17.0652 2.46515 17.0791 2.45981 17.0881 2.44899L18.203 0.809251C18.652 0.14856 19.4703 -0.148357 20.2342 0.0722736C20.5864 0.173549 20.9394 0.289 21.2833 0.415443C22.0303 0.689355 22.5191 1.41456 22.4965 2.21515L22.4419 4.20052C22.4428 4.21446 22.4508 4.22689 22.463 4.23338C23.0636 4.60052 23.6325 5.01769 24.164 5.48046C24.174 5.49019 24.1883 5.49409 24.2019 5.49091L26.0575 4.82529C26.8058 4.55631 27.641 4.80036 28.1306 5.43102C28.3572 5.72205 28.5759 6.02522 28.7804 6.33048C29.2258 6.99454 29.1986 7.87147 28.7129 8.50621L27.513 10.0771C27.5056 10.0891 27.5049 10.1041 27.5111 10.1169C27.7839 10.7697 28.0013 11.4447 28.161 12.1345C28.1632 12.1483 28.1725 12.1598 28.1853 12.1649L30.072 12.7247C30.835 12.9505 31.3685 13.6434 31.3959 14.4441C31.4024 14.6279 31.4058 14.8149 31.4058 15.0001C31.4058 15.1853 31.4024 15.3724 31.3959 15.5562C31.3685 16.3569 30.8349 17.0498 30.072 17.2755L28.1853 17.8354C28.1725 17.8404 28.1632 17.8519 28.1609 17.8657C28.0012 18.5555 27.7838 19.2304 27.511 19.8833C27.5048 19.896 27.5055 19.9111 27.5129 19.9231L28.7128 21.4941C29.1985 22.1287 29.2257 23.0056 28.7804 23.6697C28.5758 23.9752 28.3574 24.2779 28.1305 24.5692C27.6409 25.1997 26.8059 25.4437 26.0575 25.175L24.2019 24.5096C24.1884 24.5061 24.174 24.51 24.1641 24.5199C23.6327 24.9828 23.0637 25.3999 22.4631 25.7669C22.4508 25.7734 22.4427 25.7859 22.4419 25.7999L22.4966 27.7852C22.5191 28.5858 22.0303 29.311 21.2834 29.5849C20.9399 29.7112 20.587 29.8267 20.2343 29.9281C19.4702 30.1484 18.6521 29.8513 18.2031 29.1905L17.0881 27.551C17.0791 27.5401 17.0652 27.5348 17.0514 27.5369C16.3519 27.5957 15.6489 27.5957 14.9495 27.5369C14.9356 27.5348 14.9216 27.5402 14.9127 27.5511L13.7977 29.1906C13.4538 29.697 12.884 29.9997 12.275 29.9998Z" fill="#0099FF"/>
<path d="M16.0172 23.1695C15.6891 23.1695 15.3614 23.1496 15.0357 23.1102C10.5974 22.5739 7.41955 18.4995 7.95175 14.0275C8.48395 9.55554 12.528 6.35384 16.9664 6.88983C18.043 7.01789 19.0829 7.36353 20.0238 7.906C20.4585 8.15595 20.6097 8.71362 20.3617 9.15158C20.1136 9.58953 19.5601 9.74193 19.1255 9.49198L19.1241 9.49126C16.1054 7.75283 12.2596 8.80919 10.5342 11.8508C8.8088 14.8924 9.85722 18.7674 12.876 20.5059C15.8947 22.2443 19.7405 21.1879 21.4659 18.1463C21.8836 17.4101 22.1505 16.5971 22.2508 15.7552C22.2755 15.5473 22.2903 15.3368 22.2948 15.1287C22.3055 14.6324 22.7077 14.2356 23.2004 14.2354H23.2203C23.7206 14.2462 24.1174 14.6637 24.1067 15.1677C24.1067 15.1677 24.1067 15.1678 24.1067 15.1677C24.1009 15.4345 24.082 15.7056 24.0503 15.9723C23.5618 20.0717 20.115 23.16 16.0172 23.1695Z" fill="#0099FF"/>
<path d="M16.1389 18.2786L12.5242 14.6366C12.1703 14.28 12.1703 13.7018 12.5242 13.3452C12.8782 12.9886 13.4521 12.9886 13.806 13.3452L16.1391 15.6959L21.9402 9.85089C22.2941 9.49426 22.868 9.49426 23.2219 9.85089C23.5759 10.2075 23.5759 10.7857 23.2219 11.1424L16.1389 18.2786Z" fill="#0099FF"/>
</g>
<defs>
<clipPath id="clip0_8_2466">
<rect width="30.8108" height="30" fill="white" transform="translate(0.594727)"/>
</clipPath>
</defs>
</svg>
