<svg width="133" height="133" viewBox="0 0 133 133" fill="none" xmlns="http://www.w3.org/2000/svg">
<path d="M6.23438 53.3455V115.689C6.23438 117.894 7.11015 120.008 8.66905 121.567C10.2279 123.126 12.3423 124.002 14.5469 124.002H118.453C120.658 124.002 122.772 123.126 124.331 121.567C125.89 120.008 126.766 117.894 126.766 115.689V53.3455" stroke="#A3DAFF" stroke-width="3" stroke-linecap="round" stroke-linejoin="round"/>
<path d="M30.1328 42.4769C21.777 45.0286 13.7544 48.5655 6.23438 53.013L61.7827 91.3128C63.17 92.269 64.8151 92.781 66.5 92.781C68.1849 92.781 69.83 92.269 71.2173 91.3128L126.766 53.013C119.246 48.5655 111.223 45.0286 102.867 42.4769" stroke="#A3DAFF" stroke-width="3" stroke-linecap="round" stroke-linejoin="round"/>
<path d="M30.1328 69.4925V15.1703C30.1328 13.5169 30.7896 11.9311 31.9588 10.7619C33.128 9.59278 34.7137 8.93594 36.3672 8.93594H96.6328C98.2863 8.93594 99.872 9.59278 101.041 10.7619C102.21 11.9311 102.867 13.5169 102.867 15.1703V69.4717L71.2173 91.3128C69.83 92.269 68.1849 92.781 66.5 92.781C64.8151 92.781 63.17 92.269 61.7827 91.3128L30.1536 69.4925" stroke="#A3DAFF" stroke-width="3" stroke-linecap="round" stroke-linejoin="round"/>
<path d="M86.2422 27.4105H46.7578" stroke="#A3DAFF" stroke-width="3" stroke-linecap="round" stroke-linejoin="round"/>
<path d="M66.5 59.4344H46.7578" stroke="#A3DAFF" stroke-width="3" stroke-linecap="round" stroke-linejoin="round"/>
<path d="M86.2422 43.4328H46.7578" stroke="#A3DAFF" stroke-width="3" stroke-linecap="round" stroke-linejoin="round"/>
<path d="M52.3271 84.8291L8.91504 121.82" stroke="#A3DAFF" stroke-width="3" stroke-linecap="round" stroke-linejoin="round"/>
<path d="M80.5688 84.8291L124.106 121.82" stroke="#A3DAFF" stroke-width="3" stroke-linecap="round" stroke-linejoin="round"/>
</svg>
