<svg width="30" height="30" viewBox="0 0 30 30" fill="none" xmlns="http://www.w3.org/2000/svg">
<g clip-path="url(#clip0_8_2440)">
<path d="M3.83721 8.37209L10.814 8.37209C11.3919 8.37209 11.8605 8.84063 11.8605 9.4186C11.8605 9.99657 11.3919 10.4651 10.814 10.4651L3.83721 10.4651C2.87456 10.4666 2.09456 11.2466 2.09303 12.2093L2.09303 26.1628C2.09456 27.1254 2.87456 27.9054 3.83721 27.907L26.1628 27.907C27.1254 27.9054 27.9054 27.1254 27.907 26.1628L27.907 12.2093C27.9054 11.2466 27.1254 10.4667 26.1628 10.4651L15 10.4651C14.422 10.4651 13.9535 9.99657 13.9535 9.4186C13.9535 8.84063 14.422 8.37209 15 8.37209L26.1628 8.37209C28.2814 8.37363 29.9985 10.0907 30 12.2093L30 26.1628C29.9985 28.2814 28.2814 29.9985 26.1628 30L3.83721 30C1.71861 29.9985 0.0015451 28.2814 2.24281e-06 26.1628L3.46266e-06 12.2093C0.00154097 10.0907 1.71862 8.37363 3.83721 8.37209Z" fill="#0099FF"/>
<path d="M15.0001 -1.88567e-06C15.2777 -0.000688507 15.5441 0.109875 15.7396 0.306973L19.9257 4.49302C20.3197 4.91587 20.2963 5.57807 19.8735 5.97209C19.4716 6.34658 18.8485 6.34658 18.4466 5.97209L15.0001 2.52697L11.5536 5.97208C11.1307 6.3661 10.4685 6.34271 10.0745 5.91986C9.70003 5.51796 9.70003 4.89492 10.0745 4.49302L14.2606 0.306972C14.4561 0.109875 14.7224 -0.000688555 15.0001 -1.88567e-06Z" fill="#0099FF"/>
<path d="M14.9999 1.39535C15.5778 1.39535 16.0464 1.86389 16.0464 2.44186L16.0464 15C16.0464 15.578 15.5778 16.0465 14.9999 16.0465C14.4219 16.0465 13.9534 15.578 13.9534 15L13.9534 2.44186C13.9534 1.86389 14.4219 1.39535 14.9999 1.39535Z" fill="#0099FF"/>
<path d="M1.04651 20.9302L28.9535 20.9302C29.5315 20.9302 30 21.3988 30 21.9767C30 22.5547 29.5315 23.0233 28.9535 23.0233L1.04651 23.0233C0.468544 23.0233 1.94831e-06 22.5547 1.99884e-06 21.9767C2.04937e-06 21.3988 0.468544 20.9302 1.04651 20.9302Z" fill="#0099FF"/>
<path d="M20.5814 16.0465L24.7675 16.0465C25.3454 16.0465 25.814 16.5151 25.814 17.093C25.814 17.671 25.3454 18.1395 24.7675 18.1395L20.5814 18.1395C20.0034 18.1395 19.5349 17.671 19.5349 17.093C19.5349 16.5151 20.0034 16.0465 20.5814 16.0465Z" fill="#0099FF"/>
<path d="M21.9768 12.5581L24.7675 12.5581C25.3454 12.5581 25.814 13.0267 25.814 13.6046C25.814 14.1826 25.3454 14.6512 24.7675 14.6512L21.9768 14.6512C21.3988 14.6512 20.9302 14.1826 20.9302 13.6046C20.9302 13.0267 21.3988 12.5581 21.9768 12.5581Z" fill="#0099FF"/>
</g>
<defs>
<clipPath id="clip0_8_2440">
<rect width="30" height="30" fill="white" transform="translate(30 30) rotate(-180)"/>
</clipPath>
</defs>
</svg>
