<svg width="15" height="16" viewBox="0 0 15 16" fill="none" xmlns="http://www.w3.org/2000/svg">
<g clip-path="url(#clip0_22_776)">
<path d="M11.8903 8.31207C11.6883 8.31207 11.5244 8.14817 11.5244 7.94622C11.5244 5.72731 9.71896 3.92182 7.50005 3.92182C6.25835 3.92182 5.10444 4.48414 4.33432 5.465C4.2092 5.62341 3.97908 5.65122 3.82066 5.52682C3.66152 5.40207 3.63408 5.17195 3.75883 5.01317C4.66871 3.85451 6.03261 3.19048 7.50042 3.19048C10.1229 3.19048 12.2565 5.32414 12.2565 7.94658C12.2565 8.14853 12.0926 8.31243 11.8907 8.31243L11.8903 8.31207Z" fill="black" stroke="black" stroke-width="0.25" stroke-miterlimit="10"/>
<path d="M3.10999 8.31207C2.90804 8.31207 2.74414 8.14817 2.74414 7.94621C2.74414 7.41975 2.83085 6.90097 3.0017 6.40414C3.06756 6.2128 3.27609 6.11109 3.4667 6.17695C3.65768 6.2428 3.75938 6.45097 3.6939 6.64195C3.54902 7.06195 3.47585 7.50097 3.47585 7.94621C3.47585 8.14817 3.31195 8.31207 3.10999 8.31207Z" fill="black" stroke="black" stroke-width="0.25" stroke-miterlimit="10"/>
<path d="M9.65488 12.1389C9.60732 12.1389 9.55866 12.1294 9.51183 12.1096C9.32598 12.0306 9.23927 11.8158 9.3183 11.6296C9.43683 11.3505 9.5433 11.0593 9.63476 10.7644C9.69476 10.5712 9.9 10.4633 10.0924 10.5233C10.2856 10.5833 10.3935 10.7882 10.3335 10.981C10.2348 11.2996 10.1199 11.6139 9.99147 11.9157C9.9322 12.0551 9.79683 12.1385 9.65452 12.1385L9.65488 12.1389Z" fill="black" stroke="black" stroke-width="0.25" stroke-miterlimit="10"/>
<path d="M10.3136 9.81207C10.2957 9.81207 10.2774 9.81097 10.2591 9.80805C10.0593 9.77805 9.9214 9.59183 9.9514 9.39207C10.0242 8.90585 10.0608 8.41963 10.0608 7.94622C10.0608 6.53402 8.91201 5.38524 7.49982 5.38524H7.43031C7.22836 5.38524 7.06445 5.22134 7.06445 5.01939C7.06445 4.81744 7.22836 4.65353 7.43031 4.65353H7.49982C9.31518 4.65353 10.7925 6.13085 10.7925 7.94622C10.7925 8.45585 10.753 8.97866 10.6751 9.50036C10.648 9.68183 10.4918 9.81207 10.3136 9.81207Z" fill="black" stroke="black" stroke-width="0.25" stroke-miterlimit="10"/>
<path d="M3.80108 10.6791C3.72608 10.6791 3.65071 10.6565 3.58559 10.6089C3.42242 10.4896 3.38693 10.2606 3.50583 10.0978C3.96461 9.46963 4.20717 8.72585 4.20717 7.94658C4.20717 6.78426 4.83169 5.69621 5.83669 5.10646C6.01047 5.00365 6.23474 5.06255 6.33754 5.23707C6.43961 5.41158 6.38144 5.63548 6.20693 5.73792C5.42473 6.1967 4.93888 7.04292 4.93888 7.94658C4.93888 8.88207 4.64766 9.77548 4.09669 10.5295C4.02498 10.6276 3.91376 10.6795 3.80071 10.6795L3.80108 10.6791Z" fill="black" stroke="black" stroke-width="0.25" stroke-miterlimit="10"/>
<path d="M7.73021 12.695C7.66509 12.695 7.59887 12.6778 7.53924 12.6408C7.36692 12.5351 7.31314 12.3101 7.41887 12.1378C8.19009 10.8811 8.59765 9.43194 8.59765 7.94621C8.59765 7.34109 8.10521 6.84865 7.50009 6.84865C6.89497 6.84865 6.40253 7.34109 6.40253 7.94621C6.40253 8.08853 6.39851 8.22719 6.38643 8.36548C6.36924 8.5667 6.19034 8.7178 5.99058 8.69841C5.78936 8.68121 5.64009 8.50377 5.65765 8.30255C5.6679 8.18475 5.67082 8.06694 5.67082 7.94621C5.67082 6.93755 6.49143 6.11694 7.50009 6.11694C8.50875 6.11694 9.32936 6.93755 9.32936 7.94621C9.32936 9.56731 8.88448 11.1489 8.04229 12.5205C7.97351 12.6332 7.85314 12.695 7.73021 12.695Z" fill="black" stroke="black" stroke-width="0.25" stroke-miterlimit="10"/>
<path d="M4.82149 11.7913C4.76661 11.7913 4.71063 11.7789 4.65831 11.7529C4.47758 11.6626 4.40441 11.4427 4.49478 11.2619C4.53978 11.1723 4.59246 11.0871 4.6521 11.0095C4.9671 10.5932 5.21222 10.1348 5.37978 9.6489C5.44563 9.45792 5.65344 9.35658 5.84478 9.42243C6.03575 9.48829 6.13709 9.69682 6.07124 9.88743C5.87844 10.4461 5.5971 10.9726 5.23417 11.4522C5.20014 11.4972 5.17197 11.5433 5.14929 11.589C5.08527 11.7174 4.95612 11.7913 4.82149 11.7913Z" fill="black" stroke="black" stroke-width="0.25" stroke-miterlimit="10"/>
<path d="M6.11321 12.4755C6.03675 12.4755 5.95992 12.4517 5.8937 12.4023C5.73236 12.2808 5.69943 12.0518 5.82089 11.8901C6.68028 10.7457 7.13431 9.38219 7.13431 7.94658C7.13431 7.74463 7.29821 7.58073 7.50016 7.58073C7.70211 7.58073 7.86601 7.74463 7.86601 7.94658C7.86601 9.5417 7.36114 11.0574 6.40626 12.3295C6.33419 12.4254 6.22443 12.4755 6.11321 12.4755Z" fill="black" stroke="black" stroke-width="0.25" stroke-miterlimit="10"/>
<path d="M0.548959 4.28768C0.347008 4.28768 0.183105 4.12378 0.183105 3.92183V2.45841C0.183105 1.44975 1.00372 0.629143 2.01237 0.629143H3.47579C3.67774 0.629143 3.84164 0.793045 3.84164 0.994996C3.84164 1.19695 3.67774 1.36085 3.47579 1.36085H2.01237C1.40725 1.36085 0.914813 1.85329 0.914813 2.45841V3.92183C0.914813 4.12378 0.75091 4.28768 0.548959 4.28768Z" fill="black" stroke="black" stroke-width="0.25" stroke-miterlimit="10"/>
<path d="M14.4514 4.28768C14.2494 4.28768 14.0855 4.12378 14.0855 3.92183V2.45841C14.0855 1.85329 13.5931 1.36085 12.988 1.36085H11.5245C11.3226 1.36085 11.1587 1.19695 11.1587 0.994996C11.1587 0.793045 11.3226 0.629143 11.5245 0.629143H12.988C13.9966 0.629143 14.8172 1.44975 14.8172 2.45841V3.92183C14.8172 4.12378 14.6533 4.28768 14.4514 4.28768Z" fill="black" stroke="black" stroke-width="0.25" stroke-miterlimit="10"/>
<path d="M12.988 15.2633H11.5245C11.3226 15.2633 11.1587 15.0994 11.1587 14.8974C11.1587 14.6955 11.3226 14.5316 11.5245 14.5316H12.988C13.5931 14.5316 14.0855 14.0391 14.0855 13.434V11.9706C14.0855 11.7687 14.2494 11.6048 14.4514 11.6048C14.6533 11.6048 14.8172 11.7687 14.8172 11.9706V13.434C14.8172 14.4427 13.9966 15.2633 12.988 15.2633Z" fill="black" stroke="black" stroke-width="0.25" stroke-miterlimit="10"/>
<path d="M3.47579 15.2633H2.01237C1.00372 15.2633 0.183105 14.4427 0.183105 13.434V11.9706C0.183105 11.7687 0.347008 11.6048 0.548959 11.6048C0.75091 11.6048 0.914813 11.7687 0.914813 11.9706V13.434C0.914813 14.0391 1.40725 14.5316 2.01237 14.5316H3.47579C3.67774 14.5316 3.84164 14.6955 3.84164 14.8974C3.84164 15.0994 3.67774 15.2633 3.47579 15.2633Z" fill="black" stroke="black" stroke-width="0.25" stroke-miterlimit="10"/>
</g>
<defs>
<clipPath id="clip0_22_776">
<rect width="15" height="15" fill="white" transform="translate(0 0.446213)"/>
</clipPath>
</defs>
</svg>
