<svg width="14" height="19" viewBox="0 0 14 19" fill="none" xmlns="http://www.w3.org/2000/svg">
<g clip-path="url(#clip0_22_795)">
<path d="M6.99997 0.104168C4.08332 0.104168 1.74998 2.35418 1.74998 5.16667V7.41669C0.758292 7.41669 0 8.14795 0 9.10417V16.4167C0 17.373 0.758351 18.1042 1.74998 18.1042H12.25C13.2416 18.1042 13.9999 17.3729 13.9999 16.4167V9.10417C13.9999 8.1479 13.2416 7.41669 12.25 7.41669V5.16667C12.25 2.35418 9.91668 0.104168 6.99997 0.104168ZM12.8333 9.10417V16.4167C12.8333 16.7542 12.6 16.9792 12.25 16.9792H1.74998C1.40001 16.9792 1.16667 16.7542 1.16667 16.4167V9.10417C1.16667 8.76669 1.40001 8.54169 1.74998 8.54169H12.25C12.5999 8.54169 12.8333 8.76669 12.8333 9.10417ZM2.91665 7.41669V5.16667C2.91665 2.97292 4.72498 1.22918 6.99997 1.22918C9.27497 1.22918 11.0833 2.97292 11.0833 5.16667V7.41669H2.91665Z" fill="black"/>
<path d="M6.99998 10.2292C6.00829 10.2292 5.25 10.9604 5.25 11.9167C5.25 12.6479 5.71667 13.2667 6.41667 13.4917V14.7291C6.41667 15.0666 6.65001 15.2916 6.99998 15.2916C7.34995 15.2916 7.58328 15.0666 7.58328 14.7291V13.4917C8.28329 13.2667 8.74996 12.6479 8.74996 11.9167C8.74996 10.9604 7.9916 10.2292 6.99998 10.2292ZM6.99998 12.4792C6.65001 12.4792 6.41667 12.2542 6.41667 11.9167C6.41667 11.5792 6.65001 11.3542 6.99998 11.3542C7.34995 11.3542 7.58328 11.5792 7.58328 11.9167C7.58328 12.2542 7.34995 12.4792 6.99998 12.4792Z" fill="black"/>
</g>
<defs>
<clipPath id="clip0_22_795">
<rect width="14" height="18" fill="white" transform="translate(0 0.104168)"/>
</clipPath>
</defs>
</svg>
