<svg width="98" height="98" viewBox="0 0 98 98" fill="none" xmlns="http://www.w3.org/2000/svg">
<path fill-rule="evenodd" clip-rule="evenodd" d="M49 85.75C69.2965 85.75 85.75 69.2965 85.75 49C85.75 28.7035 69.2965 12.25 49 12.25C28.7035 12.25 12.25 28.7035 12.25 49C12.25 69.2965 28.7035 85.75 49 85.75ZM67.2539 38.3505C68.1378 37.2898 67.9945 35.7134 66.9338 34.8294C65.8731 33.9455 64.2967 34.0888 63.4128 35.1495L44.7487 57.5465L34.4344 47.2322C33.4581 46.2559 31.8752 46.2559 30.8989 47.2322C29.9226 48.2085 29.9226 49.7915 30.8989 50.7678L41.6003 61.4692L41.6652 61.5341L41.6652 61.5342C41.9665 61.836 42.3508 62.221 42.7299 62.5076C43.1942 62.8587 43.965 63.3123 45.0081 63.265C46.0512 63.2177 46.7777 62.6961 47.2083 62.3044C47.5599 61.9847 47.9078 61.5664 48.1805 61.2386L48.1805 61.2386L48.2393 61.168L67.2539 38.3505Z" fill="#0099FF"/>
</svg>
