<svg width="30" height="30" viewBox="0 0 30 30" fill="none" xmlns="http://www.w3.org/2000/svg">
<path d="M28.463 11.1961C27.8959 11.3117 27.5299 11.8651 27.6455 12.4321C27.6455 12.4322 27.6456 12.4324 27.6456 12.4325C29.074 19.426 24.5618 26.2531 17.5674 27.6813C10.573 29.1094 3.74497 24.5979 2.3166 17.6044C0.888221 10.6109 5.40039 3.78382 12.3948 2.35564C13.2454 2.18195 14.1114 2.09439 14.9796 2.09429C16.2943 2.09303 17.6015 2.29327 18.8556 2.68804C19.4106 2.85203 19.9935 2.53509 20.1575 1.98014C20.3172 1.43989 20.021 0.870107 19.4871 0.690247C11.583 -1.78647 3.16739 2.61245 0.690339 10.5155C-1.78671 18.4186 2.6128 26.833 10.5169 29.3098C18.421 31.7865 26.8366 27.3876 29.3137 19.4845C30.0715 17.0667 30.2042 14.4964 29.6995 12.0134C29.5839 11.4464 29.0305 11.0804 28.4634 11.196C28.4633 11.196 28.4631 11.1961 28.463 11.1961ZM24.1036 4.58105L25.1096 3.57657V8.03177C25.1096 8.61046 25.5788 9.07957 26.1575 9.07957C26.7363 9.07957 27.2055 8.61046 27.2055 8.03177V3.57657L28.2115 4.58105C28.6349 4.97554 29.298 4.95214 29.6926 4.52877C30.0675 4.12637 30.0675 3.50257 29.6926 3.10017L26.8981 0.306061C26.4886 -0.101746 25.8264 -0.101746 25.417 0.306061L22.6225 3.10017C22.228 3.52355 22.2514 4.18656 22.6748 4.58105C23.0772 4.956 23.7011 4.956 24.1036 4.58105ZM14.9489 23.0501C15.5276 23.0501 15.9968 22.581 15.9968 22.0023V21.4435C17.9956 21.1556 19.3826 19.302 19.0946 17.3034C18.8825 15.8318 17.8004 14.6352 16.3573 14.2766L14.1105 13.7178C13.7675 13.632 13.4636 13.4326 13.2484 13.152C13.0351 12.8788 12.9203 12.5416 12.9229 12.195C12.9259 11.3313 13.6267 10.6325 14.4906 10.6317H15.4686C16.2681 10.6331 16.9391 11.2343 17.0279 12.0288C17.0752 12.6055 17.5811 13.0348 18.1579 12.9875C18.7347 12.9403 19.1641 12.4345 19.1168 11.8577C19.1151 11.8369 19.1128 11.8161 19.1098 11.7954C18.9251 10.1405 17.6452 8.81946 15.9968 8.58221V8.03177C15.9968 7.45309 15.5276 6.98398 14.9488 6.98398C14.3701 6.98398 13.9009 7.45309 13.9009 8.03177V8.59059C11.9069 8.91496 10.5534 10.7942 10.8778 12.7879C11.1125 14.2305 12.1837 15.3949 13.6019 15.7491L15.8487 16.3079C16.689 16.5195 17.1987 17.3722 16.9871 18.2124C16.8118 18.9085 16.1865 19.3968 15.4686 19.3982H14.4906C13.6911 19.3968 13.0201 18.7956 12.9312 18.0012C12.884 17.4244 12.3781 16.9951 11.8013 17.0424C11.2244 17.0896 10.7951 17.5954 10.8424 18.1722C10.8441 18.193 10.8464 18.2138 10.8493 18.2345C11.0303 19.868 12.2783 21.1805 13.9009 21.4435V22.0023C13.9009 22.581 14.3701 23.0501 14.9489 23.0501Z" fill="#0099FF"/>
</svg>
