<svg width="18" height="18" viewBox="0 0 18 18" fill="none" xmlns="http://www.w3.org/2000/svg">
<path d="M14.3778 2.7856C14.5973 2.57147 14.9413 2.57147 15.1535 2.7856C15.373 2.99973 15.373 3.35415 15.1535 3.56828L13.8216 4.91214C14.8827 5.8868 15.7828 7.20112 16.4561 8.78125C16.5146 8.92155 16.5146 9.08399 16.4561 9.2169C14.89 12.894 12.1019 15.0944 8.99901 15.0944H8.99169C7.57931 15.0944 6.22548 14.6292 5.03264 13.7801L3.61294 15.2126C3.50317 15.3233 3.36412 15.375 3.22508 15.375C3.08604 15.375 2.93968 15.3233 2.83722 15.2126C2.65427 15.028 2.625 14.7326 2.77136 14.5185L2.79332 14.4889L13.6167 3.56828C13.6313 3.55351 13.646 3.53875 13.6533 3.52398C13.6679 3.50921 13.6826 3.49444 13.6899 3.47968L14.3778 2.7856ZM9.00099 2.914C10.0475 2.914 11.0647 3.16505 12.0014 3.63762L9.55716 6.10381C9.38153 6.07427 9.19126 6.05212 9.00099 6.05212C7.3837 6.05212 6.07377 7.37383 6.07377 9.00565C6.07377 9.19763 6.09573 9.38961 6.125 9.56682L3.41733 12.2988C2.68552 11.4423 2.04885 10.4086 1.54391 9.21978C1.48536 9.08687 1.48536 8.92443 1.54391 8.78413C3.10997 5.107 5.89814 2.914 8.99367 2.914H9.00099ZM11.414 7.34141L10.6163 8.14625C10.748 8.3973 10.8212 8.69265 10.8212 9.00277C10.8212 10.0144 10.0016 10.8413 8.99901 10.8413C8.69165 10.8413 8.39893 10.7675 8.15012 10.6346L7.35245 11.4394C7.82081 11.7569 8.39162 11.9489 8.99901 11.9489C10.609 11.9489 11.9189 10.6272 11.9189 9.00277C11.9189 8.38991 11.7286 7.81397 11.414 7.34141Z" fill="#505050"/>
</svg>
