<svg width="30" height="30" viewBox="0 0 30 30" fill="none" xmlns="http://www.w3.org/2000/svg">
<g clip-path="url(#clip0_8_2450)">
<path d="M22.9871 9.84564C23.3532 10.2117 23.3532 10.8054 22.9871 11.1715L20.1544 14.0042C19.9713 14.1873 19.7314 14.2788 19.4915 14.2788C19.2516 14.2788 19.0117 14.1873 18.8286 14.0042C18.4625 13.6381 18.4625 13.0445 18.8286 12.6784L20.0609 11.4461H8.82838C8.3106 11.4461 7.89086 11.0263 7.89086 10.5085C7.89086 9.99081 8.31056 9.57103 8.82838 9.57103H20.0609L18.8286 8.33869C18.4625 7.97259 18.4625 7.37897 18.8286 7.01288C19.1948 6.64678 19.7885 6.64674 20.1544 7.01288L22.9871 9.84564ZM20.5994 18.554H9.93915L11.1715 17.3217C11.5376 16.9555 11.5376 16.362 11.1715 15.9959C10.8054 15.6297 10.2118 15.6298 9.84564 15.9959L7.01288 18.8286C6.83704 19.0044 6.73826 19.2429 6.73826 19.4915C6.73826 19.7402 6.83704 19.9786 7.01288 20.1544L9.84564 22.9872C10.0287 23.1703 10.2686 23.2618 10.5085 23.2618C10.7484 23.2618 10.9883 23.1703 11.1714 22.9872C11.5375 22.6211 11.5375 22.0274 11.1714 21.6614L9.93904 20.429H20.5993C21.1171 20.429 21.5369 20.0092 21.5369 19.4915C21.5369 18.9738 21.1172 18.554 20.5994 18.554ZM30 15C30 23.2711 23.271 30 15 30C6.72894 30 0 23.271 0 15C0 6.72902 6.72898 0 15 0C23.2711 0 30 6.72898 30 15ZM28.125 15C28.125 7.76286 22.2371 1.87504 15 1.87504C7.7629 1.87504 1.875 7.76286 1.875 15C1.875 22.2372 7.76286 28.125 15 28.125C22.2371 28.125 28.125 22.2371 28.125 15Z" fill="#0099FF"/>
</g>
<defs>
<clipPath id="clip0_8_2450">
<rect width="30" height="30" fill="white"/>
</clipPath>
</defs>
</svg>
