<svg width="32" height="29" viewBox="0 0 32 29" fill="none" xmlns="http://www.w3.org/2000/svg">
<path fill-rule="evenodd" clip-rule="evenodd" d="M6.66173 27.9418H1.50212C1.3283 27.9418 1.1875 27.8005 1.1875 27.6267V15.2244C1.1875 15.0505 1.32822 14.9093 1.50212 14.9093H6.66173C6.83555 14.9093 6.97683 15.0505 6.97683 15.2244V27.6267C6.97683 27.8005 6.83555 27.9418 6.66173 27.9418ZM1.81721 27.3115H6.34664V15.5394H1.81721V27.3115Z" fill="#0099FF" stroke="#0099FF" stroke-width="1.2" stroke-miterlimit="10"/>
<path fill-rule="evenodd" clip-rule="evenodd" d="M14.6071 27.9418H9.44742C9.2736 27.9418 9.13232 27.8005 9.13232 27.6267V12.843C9.13232 12.6692 9.2736 12.5279 9.44742 12.5279H14.6071C14.7809 12.5279 14.9217 12.6692 14.9217 12.843V27.6266C14.9217 27.8004 14.781 27.9418 14.6071 27.9418ZM9.76259 27.3115H14.292V13.1582H9.76259V27.3115Z" fill="#0099FF" stroke="#0099FF" stroke-width="1.2" stroke-miterlimit="10"/>
<path fill-rule="evenodd" clip-rule="evenodd" d="M22.5524 27.9418H17.3927C17.2189 27.9418 17.0776 27.8005 17.0776 27.6267V10.0048C17.0776 9.83039 17.2189 9.68967 17.3927 9.68967H22.5524C22.7262 9.68967 22.867 9.83039 22.867 10.0048V27.6266C22.867 27.8004 22.7263 27.9418 22.5524 27.9418ZM17.7079 27.3115H22.2373V10.3199H17.7079V27.3115Z" fill="#0099FF" stroke="#0099FF" stroke-width="1.2" stroke-miterlimit="10"/>
<path fill-rule="evenodd" clip-rule="evenodd" d="M30.4982 27.9417H25.3385C25.1647 27.9417 25.0234 27.8005 25.0234 27.6267V6.62139C25.0234 6.44702 25.1647 6.30629 25.3385 6.30629H30.4982C30.672 6.30629 30.8128 6.44702 30.8128 6.62139V27.6267C30.8128 27.8005 30.6721 27.9417 30.4982 27.9417ZM25.6537 27.3115H30.1831V6.93592H25.6537V27.3115Z" fill="#0099FF" stroke="#0099FF" stroke-width="1.2" stroke-miterlimit="10"/>
<path fill-rule="evenodd" clip-rule="evenodd" d="M4.19848 11.7096C4.04089 11.7096 3.90542 11.5919 3.88601 11.4317C3.86557 11.2589 3.98839 11.1024 4.16125 11.0814C4.19641 11.0772 7.71374 10.6449 12.0625 9.20585C16.061 7.88287 21.6014 5.41439 25.2931 1.16648C25.4071 1.03515 25.6061 1.02155 25.7374 1.13546C25.8688 1.24937 25.8829 1.44848 25.7689 1.57982C24.093 3.50784 21.916 5.2405 19.2978 6.72902C17.2101 7.91596 14.8382 8.95225 12.2474 9.80835C7.84086 11.2647 4.27206 11.7028 4.23635 11.7075C4.22378 11.7085 4.21105 11.7096 4.19848 11.7096Z" fill="#0099FF" stroke="#0099FF" stroke-width="1.2" stroke-miterlimit="10"/>
<path fill-rule="evenodd" clip-rule="evenodd" d="M25.75 4.31042C25.5877 4.31042 25.4501 4.18593 25.436 4.02158L25.2438 1.72222L22.7779 1.99531C22.6046 2.01424 22.4491 1.88975 22.4302 1.71697C22.4108 1.54363 22.5358 1.38819 22.7086 1.36878L25.4963 1.06045C25.5809 1.05098 25.6655 1.0762 25.7311 1.1303C25.7967 1.18439 25.8377 1.26266 25.8451 1.34722L26.0641 3.96908C26.0788 4.14241 25.9501 4.29467 25.7763 4.30939C25.7674 4.30994 25.7585 4.31042 25.75 4.31042Z" fill="#0099FF" stroke="#0099FF" stroke-width="1.2" stroke-miterlimit="10"/>
</svg>
