<svg width="30" height="23" viewBox="0 0 30 23" fill="none" xmlns="http://www.w3.org/2000/svg">
<g clip-path="url(#clip0_8_2428)">
<path d="M26.1628 22.314H19.186C18.6081 22.314 18.1395 21.8454 18.1395 21.2674C18.1395 20.6894 18.608 20.2209 19.186 20.2209H26.1628C27.1254 20.2193 27.9054 19.4393 27.907 18.4767V4.52327C27.9054 3.56062 27.1254 2.78062 26.1628 2.77906H3.83723C2.87458 2.78062 2.09458 3.56062 2.09302 4.52327V18.4767C2.09458 19.4394 2.87458 20.2194 3.83723 20.2209H20.8866C21.4646 20.2209 21.9332 20.6895 21.9332 21.2675C21.9332 21.8455 21.4647 22.314 20.8866 22.314H3.83723C1.71865 22.3125 0.00155769 20.5954 0 18.4768V4.52327C0.00155769 2.40463 1.7186 0.687597 3.83723 0.686039H26.1628C28.2813 0.687597 29.9984 2.40463 30 4.52327V18.4767C29.9984 20.5953 28.2814 22.3124 26.1628 22.314Z" fill="#0099FF"/>
<path d="M28.9535 9.75579H1.04654C0.468577 9.75579 0 9.28727 0 8.70925C0 8.13123 0.468519 7.66271 1.04654 7.66271H28.9535C29.5314 7.66271 30 8.13123 30 8.70925C30 9.28727 29.5315 9.75579 28.9535 9.75579Z" fill="#0099FF"/>
<path d="M9.41861 14.6395H5.23257C4.65461 14.6395 4.18604 14.171 4.18604 13.593C4.18604 13.0149 4.65455 12.5464 5.23257 12.5464H9.41861C9.99657 12.5464 10.4652 13.0149 10.4652 13.593C10.4652 14.171 9.99663 14.6395 9.41861 14.6395Z" fill="#0099FF"/>
<path d="M8.02327 18.1279H5.23257C4.65461 18.1279 4.18604 17.6593 4.18604 17.0813C4.18604 16.5033 4.65455 16.0348 5.23257 16.0348H8.02327C8.60123 16.0348 9.0698 16.5033 9.0698 17.0813C9.0698 17.6593 8.60128 18.1279 8.02327 18.1279Z" fill="#0099FF"/>
</g>
<defs>
<clipPath id="clip0_8_2428">
<rect width="30" height="21.6279" fill="white" transform="translate(0 0.686039)"/>
</clipPath>
</defs>
</svg>
