<svg width="31" height="32" viewBox="0 0 31 32" fill="none" xmlns="http://www.w3.org/2000/svg">
<path d="M4.375 12.375C4.375 10.4752 4.37606 9.10073 4.51699 8.05254C4.65598 7.01873 4.92272 6.37753 5.40013 5.90013C5.87753 5.42272 6.51873 5.15598 7.55254 5.01699C8.60073 4.87606 9.97525 4.875 11.875 4.875H19.125C21.0248 4.875 22.3993 4.87606 23.4475 5.01699C24.4813 5.15598 25.1225 5.42272 25.5999 5.90013C26.0773 6.37753 26.344 7.01873 26.483 8.05254C26.6239 9.10073 26.625 10.4752 26.625 12.375V19.625C26.625 21.5248 26.6239 22.8993 26.483 23.9475C26.344 24.9813 26.0773 25.6225 25.5999 26.0999C25.1225 26.5773 24.4813 26.844 23.4475 26.983C22.3993 27.1239 21.0248 27.125 19.125 27.125H11.875C9.97525 27.125 8.60073 27.1239 7.55254 26.983C6.51873 26.844 5.87753 26.5773 5.40013 26.0999C4.92272 25.6225 4.65598 24.9813 4.51699 23.9475C4.37606 22.8993 4.375 21.5248 4.375 19.625V12.375Z" stroke="#222222"/>
<path d="M15.5 10.8333L15.5 21.1667" stroke="#222222" stroke-linejoin="round"/>
<path d="M20.6665 16L10.3332 16" stroke="#222222" stroke-linejoin="round"/>
</svg>
