<svg width="15" height="16" viewBox="0 0 15 16" fill="none" xmlns="http://www.w3.org/2000/svg">
<g clip-path="url(#clip0_22_791)">
<path d="M7.49993 10.1238C8.45427 10.1238 9.22787 9.35016 9.22787 8.39582C9.22787 7.44148 8.45427 6.66788 7.49993 6.66788C6.54559 6.66788 5.77199 7.44148 5.77199 8.39582C5.77301 9.34973 6.54601 10.1227 7.49993 10.1238ZM7.49993 7.35905C8.0725 7.35905 8.53669 7.82325 8.53669 8.39582C8.53669 8.96839 8.0725 9.43258 7.49993 9.43258C6.92736 9.43258 6.46317 8.96839 6.46317 8.39582C6.46384 7.8235 6.92761 7.35973 7.49993 7.35905ZM7.49993 15.6531C8.45427 15.6531 9.22787 14.8795 9.22787 13.9251C9.22787 12.9708 8.45427 12.1972 7.49993 12.1972C6.54559 12.1972 5.77199 12.9708 5.77199 13.9251C5.77301 14.879 6.54601 15.6521 7.49993 15.6531ZM7.49993 12.8884C8.0725 12.8884 8.53669 13.3526 8.53669 13.9251C8.53669 14.4977 8.0725 14.9619 7.49993 14.9619C6.92736 14.9619 6.46317 14.4977 6.46317 13.9251C6.46384 13.3528 6.92761 12.889 7.49993 12.8884ZM1.97061 10.1237C2.92495 10.1237 3.69855 9.35007 3.69855 8.39573C3.69855 7.44139 2.92495 6.6678 1.97061 6.6678C1.01627 6.6678 0.242676 7.44156 0.242676 8.39582C0.24369 9.34973 1.0167 10.1227 1.97061 10.1237ZM1.97061 7.35897C2.54318 7.35897 3.00738 7.82316 3.00738 8.39573C3.00738 8.9683 2.54318 9.4325 1.97061 9.4325C1.39804 9.4325 0.933851 8.9683 0.933851 8.39573C0.934527 7.82342 1.3983 7.35965 1.97061 7.35897ZM13.0293 6.6678C12.075 6.6678 11.3014 7.44139 11.3014 8.39573C11.3014 9.35007 12.075 10.1237 13.0293 10.1237C13.9837 10.1237 14.7573 9.35007 14.7573 8.39573C14.7563 7.44182 13.9832 6.66881 13.0293 6.6678ZM13.0293 9.4325C12.4568 9.4325 11.9926 8.9683 11.9926 8.39573C11.9926 7.82316 12.4568 7.35897 13.0293 7.35897C13.6019 7.35897 14.0661 7.82316 14.0661 8.39573C14.0654 8.96805 13.6016 9.43182 13.0293 9.4325ZM7.49993 1.13857C6.54559 1.13857 5.77199 1.91216 5.77199 2.8665C5.77199 3.82084 6.54559 4.59444 7.49993 4.59444C8.45427 4.59444 9.22787 3.82084 9.22787 2.8665C9.22685 1.91259 8.45384 1.13958 7.49993 1.13857ZM7.49993 3.90326C6.92736 3.90326 6.46317 3.43907 6.46317 2.8665C6.46317 2.29393 6.92736 1.82974 7.49993 1.82974C8.0725 1.82974 8.53669 2.29393 8.53669 2.8665C8.53601 3.43882 8.07224 3.90259 7.49993 3.90326ZM1.97061 4.59444C2.92495 4.59444 3.69855 3.82084 3.69855 2.8665C3.69855 1.91216 2.92495 1.13857 1.97061 1.13857C1.01627 1.13857 0.242676 1.91225 0.242676 2.8665C0.24369 3.82042 1.0167 4.59343 1.97061 4.59444ZM1.97061 1.82974C2.54318 1.82974 3.00738 2.29393 3.00738 2.8665C3.00738 3.43907 2.54318 3.90326 1.97061 3.90326C1.39804 3.90326 0.933851 3.43907 0.933851 2.8665C0.934527 2.29419 1.3983 1.83042 1.97061 1.82974ZM13.0293 1.13857C12.075 1.13857 11.3014 1.91216 11.3014 2.8665C11.3014 3.82084 12.075 4.59444 13.0293 4.59444C13.9837 4.59444 14.7573 3.82084 14.7573 2.8665C14.7563 1.91259 13.9832 1.13958 13.0293 1.13857ZM13.0293 3.90326C12.4568 3.90326 11.9926 3.43907 11.9926 2.8665C11.9926 2.29393 12.4568 1.82974 13.0293 1.82974C13.6019 1.82974 14.0661 2.29393 14.0661 2.8665C14.0654 3.43882 13.6016 3.90259 13.0293 3.90326Z" fill="black" stroke="black" stroke-width="0.5743" stroke-miterlimit="10"/>
</g>
<defs>
<clipPath id="clip0_22_791">
<rect width="15" height="15" fill="white" transform="translate(0 0.895859)"/>
</clipPath>
</defs>
</svg>
